<?xml version="1.0" ?><!DOCTYPE svg  PUBLIC '-//W3C//DTD SVG 1.1//EN'  'http://www.w3.org/Graphics/SVG/1.1/DTD/svg11.dtd'><svg height="512px" style="enable-background:new 0 0 512 512;" version="1.1" viewBox="0 0 512 512" width="512px" xml:space="preserve" xmlns="http://www.w3.org/2000/svg" xmlns:xlink="http://www.w3.org/1999/xlink"><g id="_x37_3_x2C__Ball_x2C__bauble_x2C__christmas_x2C__gift_x2C__sphere_x2C__toy"><path d="M398.633,393.721c4.28,0,7.762-3.48,7.762-7.756c0-4.276-3.481-7.756-7.762-7.756c-4.275,0-7.755,3.479-7.755,7.756   C390.878,390.24,394.357,393.721,398.633,393.721z"/><path d="M108.849,195.49c-4.265,0-7.735,3.479-7.735,7.756s3.47,7.756,7.735,7.756c4.276,0,7.756-3.479,7.756-7.756   S113.125,195.49,108.849,195.49z"/><path d="M108.849,393.721c4.276,0,7.756-3.48,7.756-7.756c0-4.276-3.479-7.756-7.756-7.756c-4.265,0-7.735,3.479-7.735,7.756   C101.114,390.24,104.583,393.721,108.849,393.721z"/><path d="M107.248,424.269c23.1-3.985,40.366-24.378,40.366-47.981c0-2.209,1.791-4,4-4s4,1.791,4,4   c0,26.866,21.85,48.724,48.707,48.724c26.859,0,48.711-21.857,48.711-48.724c0-2.209,1.791-4,4-4s4,1.791,4,4   c0,26.866,21.856,48.724,48.723,48.724c26.868,0,48.727-21.857,48.727-48.724c0-2.209,1.791-4,4-4s4,1.791,4,4   c0,23.734,17.143,43.952,40.252,47.988c29.424-33.881,47.559-77.809,48.515-125.875H58.737   C59.693,346.465,77.826,390.39,107.248,424.269z M398.633,370.209c8.691,0,15.762,7.068,15.762,15.756s-7.07,15.755-15.762,15.755   c-8.688,0-15.755-7.067-15.755-15.755S389.945,370.209,398.633,370.209z M311.281,370.209c8.688,0,15.756,7.068,15.756,15.756   s-7.067,15.755-15.756,15.755c-8.688,0-15.755-7.067-15.755-15.755S302.594,370.209,311.281,370.209z M203.858,370.209   c8.688,0,15.756,7.068,15.756,15.756s-7.068,15.755-15.756,15.755s-15.756-7.067-15.756-15.755S195.17,370.209,203.858,370.209z    M108.849,370.209c8.688,0,15.756,7.068,15.756,15.756s-7.068,15.755-15.756,15.755c-8.676,0-15.735-7.067-15.735-15.755   S100.172,370.209,108.849,370.209z"/><path d="M203.858,393.721c4.276,0,7.756-3.48,7.756-7.756c0-4.276-3.479-7.756-7.756-7.756s-7.756,3.479-7.756,7.756   C196.103,390.24,199.582,393.721,203.858,393.721z"/><path d="M276.859,41.144c0-10.946-8.911-19.851-19.864-19.851c-10.956,0-19.869,8.905-19.869,19.851v19.139h39.733V41.144z"/><path d="M362.481,397.213c-8.345,20.951-28.835,35.798-52.728,35.798c-23.89,0-44.377-14.846-52.723-35.795   c-8.344,20.949-28.827,35.795-52.711,35.795c-23.905,0-44.403-14.873-52.731-35.854c-6.566,16.416-20.629,29.286-38.131,33.941   c36.144,37.935,87.128,61.609,143.538,61.609c56.409,0,107.392-23.676,143.535-61.611   C383.02,426.429,369.015,413.638,362.481,397.213z"/><path d="M239.273,88.846c0.112-0.01,0.223-0.021,0.334-0.03c1.295-0.108,2.594-0.203,3.896-0.287   c0.239-0.015,0.479-0.031,0.717-0.045c1.279-0.079,2.56-0.147,3.844-0.202c0.193-0.008,0.387-0.014,0.58-0.022   c2.771-0.111,5.553-0.183,8.351-0.183c2.794,0,5.571,0.072,8.339,0.183c0.199,0.008,0.4,0.015,0.6,0.023   c1.279,0.055,2.555,0.123,3.826,0.201c0.247,0.015,0.494,0.031,0.741,0.047c1.294,0.084,2.585,0.177,3.872,0.285   c0.124,0.011,0.248,0.022,0.373,0.033c5.547,0.475,11.033,1.171,16.447,2.079c0.206,0.035,0.412,0.063,0.617,0.099V68.283h-6.951   h-55.733h-6.952v22.743c0.216-0.037,0.434-0.068,0.65-0.104C228.24,90.016,233.725,89.32,239.273,88.846z"/><path d="M151.589,189.443c8.328-20.982,28.826-35.855,52.731-35.855c23.884,0,44.368,14.846,52.711,35.795   c8.346-20.95,28.833-35.795,52.723-35.795c23.893,0,44.383,14.845,52.727,35.797c6.326-15.902,19.656-28.391,36.389-33.395   c-27.732-28.426-63.902-48.573-104.422-56.351c-1.28-0.246-2.563-0.482-3.848-0.702c-0.236-0.041-0.473-0.078-0.709-0.118   c-1.392-0.233-2.785-0.455-4.183-0.658c-0.087-0.013-0.174-0.024-0.261-0.037c-18.803-2.706-38.066-2.707-56.878-0.004   c-0.1,0.015-0.201,0.028-0.302,0.042c-1.376,0.2-2.75,0.419-4.122,0.648c-0.263,0.044-0.526,0.086-0.788,0.131   c-1.248,0.213-2.492,0.443-3.734,0.681c-40.546,7.765-76.742,27.913-104.492,56.35   C131.855,160.985,145.233,173.554,151.589,189.443z"/><path d="M311.281,393.721c4.277,0,7.756-3.48,7.756-7.756c0-4.276-3.479-7.756-7.756-7.756c-4.275,0-7.755,3.479-7.755,7.756   C303.526,390.24,307.006,393.721,311.281,393.721z"/><path d="M366.48,210.313c0,2.209-1.791,4-4,4s-4-1.791-4-4c0-26.867-21.858-48.725-48.727-48.725   c-26.866,0-48.723,21.858-48.723,48.725c0,2.209-1.791,4-4,4s-4-1.791-4-4c0-26.867-21.852-48.725-48.711-48.725   c-26.857,0-48.707,21.858-48.707,48.725c0,2.209-1.791,4-4,4s-4-1.791-4-4c0-23.034-16.441-43.01-38.702-47.667   c-30.396,34.13-49.201,78.792-50.175,127.755h396.51c-0.974-48.956-19.772-93.61-50.158-127.738   C382.816,167.333,366.48,187.138,366.48,210.313z M108.849,219.001c-8.676,0-15.735-7.068-15.735-15.756   s7.059-15.756,15.735-15.756c8.688,0,15.756,7.068,15.756,15.756S117.537,219.001,108.849,219.001z M203.858,219.001   c-8.688,0-15.756-7.068-15.756-15.756s7.068-15.756,15.756-15.756s15.756,7.068,15.756,15.756S212.546,219.001,203.858,219.001z    M311.281,219.001c-8.688,0-15.755-7.068-15.755-15.756s7.067-15.756,15.755-15.756c8.688,0,15.756,7.068,15.756,15.756   S319.97,219.001,311.281,219.001z M414.395,203.246c0,8.688-7.07,15.756-15.762,15.756c-8.688,0-15.755-7.068-15.755-15.756   s7.067-15.756,15.755-15.756C407.324,187.49,414.395,194.558,414.395,203.246z"/><path d="M390.878,203.246c0,4.276,3.479,7.756,7.755,7.756c4.28,0,7.762-3.479,7.762-7.756s-3.481-7.756-7.762-7.756   C394.357,195.49,390.878,198.969,390.878,203.246z"/><path d="M311.281,195.49c-4.275,0-7.755,3.479-7.755,7.756s3.479,7.756,7.755,7.756c4.277,0,7.756-3.479,7.756-7.756   S315.559,195.49,311.281,195.49z"/><path d="M203.858,195.49c-4.276,0-7.756,3.479-7.756,7.756s3.479,7.756,7.756,7.756s7.756-3.479,7.756-7.756   S208.135,195.49,203.858,195.49z"/></g><g id="Layer_1"/></svg>